# xmcd CD database file
#
# Track frame offsets:
#	150
#	14525
#	53888
#	92254
#	112993
#	148656
#	206886
#	230145
#	268573
#	308096
#
# Disc length: 4491 seconds
#
# Revision: 0
# Processed by: cddbd v1.5.2PL0 Copyright (c) Steve Scherf et al.
# Submitted via: CDex 1.51
#
DISCID=8811890a
DTITLE=Cannibales et Vahinés - William S. Tell
DYEAR=2008
DGENRE=Jazz
TTITLE0=L'erre
TTITLE1=Kunlun Mankwalesh
TTITLE2=Williiam S. Tell
TTITLE3=Leman
TTITLE4=Keseredes
TTITLE5=Un Eclat
TTITLE6=Rambla
TTITLE7=Trop justes/Mothers of the veil
TTITLE8=Sarafalao
TTITLE9=Koniec, un apres
EXTD=YEAR: 2008
EXTT0=
EXTT1=
EXTT2=
EXTT3=
EXTT4=
EXTT5=
EXTT6=
EXTT7=
EXTT8=
EXTT9=
PLAYORDER=
